<svg xmlns="http://www.w3.org/2000/svg" width="96" height="96" viewBox="0 0 512 512" fill="#ffffff">
  <title>Game Controller Icon</title>
  <path d="M441.56,128.25a32.06,32.06,0,0,0-27-27.2C384.4,96,320,96,256,96s-128.4,0-158.56,5.05a32.06,32.06,0,0,0-27,27.2C65.38,158.4,64,224,64,256s1.38,97.6,6.44,127.75a32.06,32.06,0,0,0,27,27.2C127.6,416,192,416,256,416s128.4,0,158.56-5.05a32.06,32.06,0,0,0,27-27.2C446.62,353.6,448,288,448,256S446.62,158.4,441.56,128.25ZM160,288H128V256h32v-32h32v32h32v32H192v32H160Zm48-64a32,32,0,1,1,32-32A32,32,0,0,1,208,224Zm144,48a32,32,0,1,1,32-32A32,32,0,0,1,352,272Z"/>
 </svg>
